<?xml version="1.0" encoding="utf-8" standalone="yes"?>
<!DOCTYPE svg PUBLIC "-//W3C//DTD SVG 1.1//EN" "http://www.w3.org/Graphics/SVG/1.1/DTD/svg11.dtd">
<svg xmlns="http://www.w3.org/2000/svg" xmlns:xlink="http://www.w3.org/1999/xlink" xmlns:dc="http://purl.org/dc/elements/1.1/" xmlns:cc="http://web.resource.org/cc/" xmlns:rdf="http://www.w3.org/1999/02/22-rdf-syntax-ns#" xmlns:sodipodi="http://sodipodi.sourceforge.net/DTD/sodipodi-0.dtd" xmlns:inkscape="http://www.inkscape.org/namespaces/inkscape" cursor="default" style="zoom: 2;" height="400px" id="svg_document" width="400px" baseProfile="full" version="1.1" preserveAspectRatio="xMidYMid meet" viewBox="0 0 400 400"><!-- Created with macSVG - https://macsvg.org/ - https://github.com/dsward2/macsvg/ --><g id="main_group"><line stroke="#804000" y1="274px" id="line2" stroke-width="3px" x1="208.5px" y2="213px" x2="287px" transform=""></line><animateMotion additive="replace" values="0 0;0 -50" begin="0s" id="animateMotion1" calcMode="linear" accumulate="none" repeatCount="1" fill="remove" dur="0.2s"></animateMotion><animateMotion additive="replace" values="0 -50;0 0" begin="0.2s" id="animateMotion2" calcMode="linear" accumulate="none" repeatCount="1" fill="remove" dur="0.3s"></animateMotion><circle stroke="#000000" cx="183px" id="circle1" stroke-width="0px" cy="293px" fill="#ffffff" r="81px" transform=""></circle><circle stroke="#000000" id="circle3" stroke-width="3px" cy="254.5px" fill="#000000" r="5" cx="192px" transform=""></circle><circle stroke="#000000" transform="" stroke-width="3px" id="circle4" cy="280px" fill="#000000" r="5" cx="199.5px"></circle><circle stroke="#000000" cx="197px" stroke-width="3px" id="circle5" cy="306.5px" fill="#000000" r="5" transform=""></circle><line stroke="#804000" y1="261.5px" id="line3" stroke-width="3px" x1="129.5px" y2="216px" x2="68px" transform=""></line><g transform="" id="g3"><path stroke="#cc1200" id="path5" stroke-width="3px" d="M301.625,215.125 C301.625,215.125 292,232.125 292,232.125 C292,232.125 270.5,220.25 270.5,220.25 C270.5,220.25 261,212.25 266.125,206.625 C271.375,201 277.625,203.5 277.625,203.5 C277.625,203.5 301.625,215.375 301.625,215.375 " fill="#cc1200" transform="rotate(113 283.116272 217.535675)"></path><path stroke="#cc1200" id="path6" stroke-width="3px" d="M281.875,210.5 C281.875,210.5 271.375,186.125 275.5,215 " fill="#cc1200" transform="rotate(16 278.207367 207.943146)"></path></g><g id="g2" transform="rotate(10 66.116272 217.287415)"><path stroke="#cc1200" id="path1" stroke-width="3px" d="M86.95546,216.411911 C86.95546,216.411911 77.33046,233.411911 77.33046,233.411911 C77.33046,233.411911 55.83046,221.536911 55.83046,221.536911 C55.83046,221.536911 46.33046,213.536911 51.45546,207.911911 C56.70546,202.286911 62.95546,204.786911 62.95546,204.786911 C62.95546,204.786911 86.95546,216.661911 86.95546,216.661911 " fill="#cc1200" transform="rotate(0 63.116272 216.535675)"></path><path stroke="#cc1200" id="path3" stroke-width="3px" d="M77.875,213.5 C77.875,213.5 64.625,183 68.75,211.875 " fill="#cc1200" transform=""></path></g></g><g id="g1" transform=""><animateMotion additive="replace" values="0 0;0 -50" begin="0s" id="animateMotion3" calcMode="linear" accumulate="none" repeatCount="1" fill="remove" dur="0.2s"></animateMotion><animateMotion additive="replace" values="0 -50;0 0" begin="0.3s" id="animateMotion4" calcMode="linear" accumulate="none" repeatCount="1" fill="remove" dur="0.3s"></animateMotion><animateMotion additive="replace" values="0 -50;0 -50" begin="0.2s" id="animateMotion5" calcMode="linear" accumulate="none" repeatCount="1" fill="remove" dur="0.1s"></animateMotion><circle stroke="#000000" transform="" id="circle2" stroke-width="0px" cy="183.5px" fill="#ffffff" r="51px" cx="181px"></circle><path stroke="#000000" id="path2" stroke-width="0px" d="M188.5,171.5 C188.5,171.5 254.75,180.25 254.75,180.25 C254.75,180.25 188.75,191.625 188.75,191.625 C188.75,191.625 180.5,181.625 189.75,170.875 " fill="#ff8c00" transform=""></path><circle stroke="#000000" id="circle6" stroke-width="0" cy="200.5px" fill="#000000" r="2.5px" cx="168.5px" transform=""></circle><circle stroke="#000000" cx="177px" stroke-width="0" id="circle7" cy="203.5px" fill="#000000" r="2.5px" transform=""></circle><circle stroke="#000000" stroke-width="0" id="circle9" cy="205px" fill="#000000" r="2.5px" transform="" cx="184.5px"></circle><circle stroke="#000000" stroke-width="0" id="circle12" cy="205.5px" fill="#000000" r="2.5px" transform="" cx="193.5px"></circle><circle stroke="#000000" transform="" stroke-width="0" id="circle13" cy="166.5px" fill="#000000" r="6px" cx="172px"></circle><circle stroke="#000000" transform="" stroke-width="0" id="circle15" cy="164px" fill="#000000" r="6px" cx="202.5px"></circle><circle stroke="#000000" stroke-width="0" id="circle8" cy="202.5px" fill="#000000" r="2.5px" transform="" cx="202.5px"></circle><circle stroke="#000000" stroke-width="0" id="circle10" cy="197.5px" fill="#000000" r="2.5px" transform="" cx="209px"></circle></g></svg>